<svg xmlns="http://www.w3.org/2000/svg" xmlns:xlink="http://www.w3.org/1999/xlink" viewBox="0 0 60 82.264">
  <defs>
    <style>
      .cls-1 {
        fill: url(#linear-gradient);
      }
    </style>
    <linearGradient id="linear-gradient" x1="0.866" y1="0.936" x2="0" gradientUnits="objectBoundingBox">
      <stop offset="0" stop-color="#537bff"/>
      <stop offset="1" stop-color="#9de5ff"/>
    </linearGradient>
  </defs>
  <g id="logo" transform="translate(-27.369 16.189) rotate(-45)">
    <path id="Path_1" data-name="Path 1" class="cls-1" d="M0,20V72.2A30.163,30.163,0,0,0,5.934,90.132c.593.791,1.187,1.516,1.846,2.242S9.1,93.758,9.824,94.418s1.451,1.253,2.242,1.846c.4.264.791.593,1.187.857A29.921,29.921,0,0,0,30,102.264h0a30.024,30.024,0,0,0,30-30V20ZM22.22,68.769a3.336,3.336,0,0,1,.989,2.637V74.44a6.8,6.8,0,0,0,.132,1.319,1.582,1.582,0,0,0,.462.791,1.491,1.491,0,0,0,.857.4,6.8,6.8,0,0,0,1.319.132h.659a1.451,1.451,0,1,1,0,2.9H24.132A4.051,4.051,0,0,1,21.1,78.923a4.276,4.276,0,0,1-1.055-3.165v-3.3a3.26,3.26,0,0,0-.923-2.637,3.543,3.543,0,0,0-1.516-.659,1.487,1.487,0,0,1-1.187-1.451A1.366,1.366,0,0,1,17.6,66.33a3.484,3.484,0,0,0,1.582-.659,3.234,3.234,0,0,0,.923-2.505V59.8a4.485,4.485,0,0,1,1.055-3.165,4.138,4.138,0,0,1,3.1-1.121h2.505a1.451,1.451,0,1,1,0,2.9H26.11a6.069,6.069,0,0,0-1.253.132,2.044,2.044,0,0,0-.857.4,2.28,2.28,0,0,0-.462.791,6.8,6.8,0,0,0-.132,1.319v2.9a3.293,3.293,0,0,1-.923,2.571,4.791,4.791,0,0,1-2.505.989v.264A3.166,3.166,0,0,1,22.22,68.769Zm15.56-2.242a3.077,3.077,0,0,1-.923-2.571V60.923a6.8,6.8,0,0,0-.132-1.319,1.582,1.582,0,0,0-.462-.791,1.49,1.49,0,0,0-.857-.4,6.643,6.643,0,0,0-1.253-.132h-.659a1.451,1.451,0,1,1,0-2.9H36a4.138,4.138,0,0,1,3.1,1.121,4.276,4.276,0,0,1,1.055,3.165v3.363a3.138,3.138,0,0,0,.923,2.506,3.484,3.484,0,0,0,1.582.659,1.472,1.472,0,0,1,1.187,1.385,1.487,1.487,0,0,1-1.187,1.451,3.218,3.218,0,0,0-1.516.659,3.058,3.058,0,0,0-.923,2.637v3.3a3.708,3.708,0,0,1-4.088,4.22H33.626a1.451,1.451,0,1,1,0-2.9h.659a7.413,7.413,0,0,0,1.319-.132,1.726,1.726,0,0,0,.857-.4,2.28,2.28,0,0,0,.462-.791,6.8,6.8,0,0,0,.132-1.319V71.275a3.431,3.431,0,0,1,.989-2.637,3.882,3.882,0,0,1,2.44-.989v-.264A3.9,3.9,0,0,1,37.78,66.527ZM30,39.56C14.967,36,6.527,37.253,2.637,38.44v-15.8H57.363V40.681C53.473,41.868,45.033,43.121,30,39.56Z" transform="translate(44.942 -6.237) rotate(45)"/>
  </g>
</svg>
